<svg width="181" height="52" viewBox="0 0 181 52" fill="none" xmlns="http://www.w3.org/2000/svg">
	<g clip-path="url(#clip0_52_205)">
		<path d="M45.1526 37.9095H45.0113V34.1467H45.1173C49.566 34.1658 53.8425 32.4288 57.0179 29.313C60.1933 26.1971 62.011 21.9542 62.0761 17.5059C62.0874 15.7221 61.7469 13.9536 61.0739 12.3016C60.401 10.6495 59.4089 9.14641 58.1544 7.87825C56.871 6.57642 55.342 5.54227 53.6559 4.83572C51.9699 4.12917 50.1605 3.76429 48.3324 3.76221V3.76221C44.7035 3.74777 41.2151 5.1636 38.6228 7.70301C36.0305 10.2424 34.5431 13.7009 34.4827 17.3293C34.4653 18.7103 34.7235 20.0809 35.2422 21.3609C35.7609 22.641 36.5296 23.8047 37.5035 24.7841C38.9871 26.2742 40.8762 27.2952 42.9356 27.7201C44.995 28.1449 47.1339 27.9549 49.0862 27.1736C51.0385 26.3923 52.718 25.0543 53.9157 23.3259C55.1134 21.5976 55.7765 19.5552 55.8225 17.4529C55.8644 16.4861 55.6956 15.5216 55.3279 14.6264C54.9716 13.7328 54.4366 12.9212 53.7557 12.2416C52.3131 10.8122 50.3632 10.0119 48.3324 10.0158C47.3176 10.011 46.3109 10.1967 45.3646 10.5634C44.434 10.9249 43.5865 11.4718 42.8738 12.171C42.178 12.8424 41.6252 13.6476 41.2485 14.5381C40.8798 15.4154 40.6993 16.3602 40.7186 17.3116C40.6887 17.9137 40.785 18.5154 41.0012 19.0781C41.2145 19.6025 41.5331 20.0775 41.9375 20.4737C42.342 20.8932 42.8293 21.2241 43.3684 21.4453C43.9262 21.6889 44.5264 21.8209 45.1349 21.8339V25.579C42.9226 25.5467 40.8134 24.6382 39.27 23.0529C38.4993 22.3054 37.897 21.402 37.5035 20.403C37.1056 19.4159 36.9132 18.358 36.9382 17.2939C36.9226 15.8577 37.1991 14.4333 37.7508 13.1072C38.3258 11.7379 39.1732 10.4997 40.2416 9.46814C41.867 7.91241 43.9102 6.86349 46.1218 6.44941C48.3333 6.03534 50.6176 6.27401 52.6957 7.13631C54.075 7.69784 55.3297 8.5263 56.3878 9.57413C57.4379 10.6201 58.2616 11.8708 58.808 13.2485C59.3498 14.6126 59.6025 16.0744 59.5499 17.5412C59.4861 20.3786 58.5902 23.1346 56.9734 25.4672C55.3567 27.7997 53.0904 29.606 50.456 30.6616C47.8216 31.7173 44.9352 31.9758 42.1551 31.4051C39.375 30.8344 36.8238 29.4597 34.8183 27.4515C33.4841 26.1207 32.4295 24.5365 31.7165 22.7921C31.0036 21.0477 30.6467 19.1783 30.667 17.2939C30.7321 12.6631 32.626 8.24588 35.9354 5.00597C39.2448 1.76606 43.7012 -0.0336342 48.3324 -0.000527764H48.4561C50.7795 0.0140147 53.0769 0.489991 55.2148 1.39976C57.3528 2.30953 59.2887 3.63496 60.9102 5.2991C62.5163 6.91157 63.7855 8.82753 64.6438 10.9354C65.5021 13.0432 65.9323 15.3008 65.9095 17.5766C65.8303 23.0181 63.6047 28.208 59.717 32.0163C55.8294 35.8245 50.5946 37.9427 45.1526 37.9095V37.9095Z" fill="#ED1C24" />
		<path d="M15.8812 29.2714H16.0402L26.5158 0.741699H31.8154L18.0717 35.5779H13.5494L-0.0353394 0.741699H5.37028L15.8812 29.2714Z" fill="black" />
		<path d="M73.7536 35.5782H68.8779V0.74197H80.0424C81.6475 0.733778 83.2481 0.911624 84.8121 1.27194C86.223 1.56482 87.5657 2.12227 88.7692 2.91482C89.8957 3.66702 90.8183 4.68667 91.4543 5.88261C92.1476 7.28066 92.4873 8.82743 92.4436 10.3873C92.4914 11.5275 92.3061 12.6654 91.8991 13.7316C91.4921 14.7977 90.8719 15.7696 90.0764 16.5879C88.4139 18.2086 86.28 19.2601 83.9819 19.591L93.7155 35.4899H87.8153L78.9826 19.9973H73.6829L73.7536 35.5782ZM73.7536 16.0049H79.3535C80.4266 16.0089 81.4974 15.9083 82.551 15.7046C83.4602 15.5413 84.3334 15.2184 85.1301 14.7507C85.8557 14.3166 86.4626 13.7097 86.8966 12.9841C87.321 12.1653 87.5425 11.2565 87.5425 10.3343C87.5425 9.41206 87.321 8.5033 86.8966 7.68448C86.4712 6.95221 85.8624 6.34337 85.1301 5.91794C84.3655 5.47366 83.5281 5.16862 82.6569 5.01701C81.6679 4.82258 80.6618 4.72789 79.6538 4.73436H73.7006L73.7536 16.0049Z" fill="black" />
		<path d="M110.692 35.5779H105.816V5.0344H94.6515V0.741699H121.856V5.0344H110.692V35.5779Z" fill="black" />
		<path d="M129.982 31.3206H148.177V35.6486H125.106V0.741699H147.435V5.0344H129.982V15.4217H146.411V19.6084H129.982V31.3206Z" fill="black" />
		<path d="M165.508 13.6555L173.775 0.671387H179.481L168.352 17.1886L181 35.5429H174.853L165.313 20.8806L155.968 35.5429H149.962L162.328 17.1002L151.128 0.706712H157.081L165.508 13.6555Z" fill="black" />
		<path d="M68.719 44.6935C68.46 44.408 68.14 44.1845 67.7827 44.0399C67.3891 43.8844 66.9692 43.8065 66.5461 43.8102C66.1021 43.8038 65.662 43.8943 65.2565 44.0752C64.8794 44.2443 64.5423 44.4911 64.2672 44.7995C63.994 45.1025 63.7838 45.4568 63.6489 45.8418C63.3662 46.648 63.3662 47.5264 63.6489 48.3326C63.7838 48.7176 63.994 49.0719 64.2672 49.3749C64.5429 49.6781 64.8802 49.919 65.2565 50.0815C65.662 50.2624 66.1021 50.3529 66.5461 50.3465C66.9391 50.3474 67.3306 50.2999 67.712 50.2051C68.017 50.1327 68.309 50.0135 68.5776 49.8518V47.573H66.8111V46.9017H69.3019V50.2935C68.8897 50.5403 68.4432 50.7248 67.977 50.8411C67.4977 50.9617 67.005 51.0211 66.5108 51.0177C65.9733 51.0262 65.4394 50.9302 64.9385 50.7351C64.4756 50.5427 64.0553 50.2605 63.7019 49.9048C63.35 49.552 63.0735 49.1313 62.8893 48.6682C62.6881 48.1625 62.5862 47.6227 62.589 47.0783C62.5862 46.5398 62.6882 46.0058 62.8893 45.5061C63.0797 45.0369 63.362 44.6104 63.7196 44.2519C64.0698 43.8968 64.4913 43.6198 64.9562 43.4393C65.4497 43.2382 65.9779 43.1362 66.5108 43.139C67.0468 43.1288 67.5799 43.2186 68.083 43.4039C68.5113 43.5705 68.8975 43.8299 69.2136 44.1636L68.719 44.6935Z" fill="black" />
		<path d="M74.6008 50.1519H78.1338V50.8408H73.8765V43.333H74.6008V50.1519Z" fill="black" />
		<path d="M88.875 47.0783C88.8835 47.6215 88.7876 48.1613 88.5924 48.6682C88.2041 49.6076 87.4616 50.3564 86.5256 50.7527C85.5287 51.1252 84.4309 51.1252 83.4341 50.7527C82.5014 50.3606 81.7594 49.6186 81.3672 48.6859C81.172 48.1789 81.0761 47.6392 81.0846 47.096C81.0762 46.5586 81.1721 46.0246 81.3672 45.5238C81.5639 45.0579 81.8454 44.6326 82.1975 44.2695C82.5503 43.9176 82.9711 43.6411 83.4341 43.4569C84.4317 43.056 85.5456 43.056 86.5432 43.4569C87.0063 43.6411 87.427 43.9176 87.7798 44.2695C88.1319 44.6326 88.4134 45.0579 88.6101 45.5238C88.7969 46.0203 88.8868 46.548 88.875 47.0783V47.0783ZM88.0801 47.0783C88.0816 46.657 88.0099 46.2386 87.8681 45.8418C87.7333 45.4567 87.5231 45.1024 87.2498 44.7995C86.9779 44.4953 86.6474 44.249 86.2782 44.0752C85.8664 43.8944 85.4207 43.8041 84.971 43.8102C84.5268 43.8021 84.0864 43.8926 83.6814 44.0752C83.3043 44.2442 82.9672 44.4911 82.6921 44.7995C82.4189 45.1024 82.2088 45.4567 82.0739 45.8418C81.7911 46.648 81.7911 47.5264 82.0739 48.3326C82.2088 48.7176 82.4189 49.0719 82.6921 49.3748C82.9678 49.6781 83.3052 49.919 83.6814 50.0815C84.0864 50.2641 84.5268 50.3546 84.971 50.3464C85.4207 50.3526 85.8664 50.2623 86.2782 50.0815C86.6466 49.9142 86.9772 49.6738 87.2498 49.3748C87.5231 49.0719 87.7333 48.7176 87.8681 48.3326C88.0112 47.93 88.0829 47.5056 88.0801 47.0783V47.0783Z" fill="black" />
		<path d="M93.0265 43.3336H95.2524C95.5399 43.2996 95.8304 43.2996 96.1179 43.3336C96.3932 43.3854 96.6566 43.4872 96.8952 43.6339C97.1284 43.7867 97.3221 43.9925 97.4605 44.2345C97.6131 44.5158 97.6864 44.8333 97.6725 45.1531C97.6792 45.534 97.5474 45.9043 97.3015 46.1954C97.0505 46.4911 96.709 46.6959 96.3299 46.7783V46.7783C96.7897 46.8188 97.2209 47.0188 97.5488 47.3436C97.7127 47.5179 97.8395 47.7236 97.9215 47.9483C98.0035 48.173 98.039 48.412 98.0258 48.6508C98.0328 48.9453 97.9659 49.2368 97.8315 49.4988C97.7003 49.7599 97.5133 49.9891 97.2839 50.1701C97.0183 50.361 96.7184 50.499 96.4006 50.5764C96.022 50.6872 95.6291 50.7408 95.2347 50.7354H93.0265V43.3336ZM93.7861 46.6193H95.323C95.5047 46.6452 95.689 46.6452 95.8707 46.6193C96.0546 46.5861 96.2293 46.5138 96.3829 46.4073C96.5372 46.3034 96.6644 46.1641 96.7539 46.001C96.864 45.8075 96.919 45.5876 96.9129 45.3651C96.919 45.1537 96.8638 44.9451 96.7539 44.7645C96.6644 44.6014 96.5372 44.462 96.3829 44.3581C96.2062 44.2428 96.0079 44.1647 95.8 44.1285C95.5712 44.1006 95.3398 44.1006 95.111 44.1285H93.7861V46.6193ZM93.7861 50.1524H95.1994C95.4637 50.1793 95.73 50.1793 95.9943 50.1524C96.2264 50.1043 96.4479 50.0145 96.6479 49.8874C96.832 49.7824 96.9846 49.6299 97.0896 49.4458C97.2113 49.2435 97.2726 49.0105 97.2662 48.7745C97.2831 48.5607 97.2449 48.3461 97.1552 48.1512C97.0655 47.9564 96.9274 47.7878 96.7539 47.6616C96.3363 47.3862 95.8397 47.2558 95.3407 47.2906H93.7861V50.1524Z" fill="black" />
		<path d="M102.248 50.8408H101.417L104.633 43.333H105.375L108.607 50.8408H107.759L106.929 48.8623H103.043L102.248 50.8408ZM103.361 48.1557H106.664L105.004 44.1809L103.361 48.1557Z" fill="black" />
		<path d="M113.023 50.1519H116.556V50.8408H112.299V43.333H113.058L113.023 50.1519Z" fill="black" />
	</g>
	<defs>
		<clipPath id="clip0_52_205">
			<rect width="181" height="51.0354" fill="black" />
		</clipPath>
	</defs>
</svg>
